<?xml version="1.0" encoding="UTF-8" standalone="no"?>
<svg
   xmlns:osb="http://www.openswatchbook.org/uri/2009/osb"
   xmlns:dc="http://purl.org/dc/elements/1.1/"
   xmlns:cc="http://creativecommons.org/ns#"
   xmlns:rdf="http://www.w3.org/1999/02/22-rdf-syntax-ns#"
   xmlns:svg="http://www.w3.org/2000/svg"
   xmlns="http://www.w3.org/2000/svg"
   xmlns:xlink="http://www.w3.org/1999/xlink"
   xmlns:sodipodi="http://sodipodi.sourceforge.net/DTD/sodipodi-0.dtd"
   xmlns:inkscape="http://www.inkscape.org/namespaces/inkscape"
   version="1.1"
   id="svg2"
   viewBox="0 0 9.9999995 9.9999995"
   height="10"
   width="10"
   inkscape:version="0.91 r13725"
   sodipodi:docname="delete.svg">
  <sodipodi:namedview
     pagecolor="#ffffff"
     bordercolor="#666666"
     borderopacity="1"
     objecttolerance="10"
     gridtolerance="10"
     guidetolerance="10"
     inkscape:pageopacity="0"
     inkscape:pageshadow="2"
     inkscape:window-width="1920"
     inkscape:window-height="1138"
     id="namedview4168"
     showgrid="false"
     inkscape:zoom="40.594923"
     inkscape:cx="0.91503491"
     inkscape:cy="4.3022593"
     inkscape:window-x="-8"
     inkscape:window-y="-8"
     inkscape:window-maximized="1"
     inkscape:current-layer="svg2"
     units="px" />
  <defs
     id="defs4">
    <linearGradient
       osb:paint="solid"
       id="linearGradient6132">
      <stop
         id="stop6134"
         offset="0"
         style="stop-color:#000000;stop-opacity:1;" />
    </linearGradient>
    <linearGradient
       osb:paint="solid"
       id="linearGradient4692">
      <stop
         id="stop4694"
         offset="0"
         style="stop-color:#000000;stop-opacity:1;" />
    </linearGradient>
    <linearGradient
       gradientTransform="translate(-763.67532,52.527932)"
       gradientUnits="userSpaceOnUse"
       y2="493.07648"
       x2="384.78571"
       y1="493.07648"
       x1="159.49998"
       id="linearGradient6136"
       xlink:href="#linearGradient4692" />
  </defs>
  <metadata
     id="metadata7">
    <rdf:RDF>
      <cc:Work
         rdf:about="">
        <dc:format>image/svg+xml</dc:format>
        <dc:type
           rdf:resource="http://purl.org/dc/dcmitype/StillImage" />
        <dc:title></dc:title>
      </cc:Work>
    </rdf:RDF>
  </metadata>
  <rect
     style="opacity:0.90399996;fill:#ff0000;fill-opacity:1;stroke:none;stroke-width:1.2594291"
     id="rect4150"
     width="1.5983627"
     height="11.787189"
     x="6.3525114"
     y="-5.4722881"
     transform="matrix(0.75397129,0.65690737,-0.70294422,0.71124498,0,0)" />
  <rect
     style="opacity:0.60199998;fill:#f0f0f0;fill-opacity:1;stroke:none;stroke-width:1.2594291;stroke-opacity:1"
     id="rect4150-1"
     width="1.5983627"
     height="11.787189"
     x="-0.80720401"
     y="1.1236897"
     transform="matrix(0.65557917,-0.75512645,0.71248124,0.70169116,0,0)" />
  <path
     style="opacity:0.90399996;fill:#ff0000;fill-opacity:1;stroke:none;stroke-width:0.27869761;stroke-opacity:1"
     d="M 6.9455188,7.912012 C 6.0028946,6.9842482 5.2129449,6.2054037 5.1900748,6.1812446 L 5.1484899,6.1373189 5.6675928,5.6127579 C 5.9530993,5.3242477 6.1942975,5.0859602 6.2035884,5.0832202 6.2153073,5.0791868 9.170053,7.9689552 9.6386091,8.4420727 9.6561853,8.4597657 9.5777474,8.5581703 9.169579,9.0304358 8.9000019,9.3423229 8.6749272,9.5978063 8.6694101,9.5981732 8.6639058,9.5985554 7.888142,8.839761 6.9455165,7.9119971 Z"
     id="path4167"
     inkscape:connector-curvature="0" />
  <path
     style="opacity:0.90399996;fill:#ff0000;fill-opacity:1;stroke:none;stroke-width:0.27869761;stroke-opacity:1"
     d="M 4.5537711,5.5549895 C 4.2592842,5.2650181 4.0184987,5.0233374 4.0186918,5.0179279 4.0189034,5.0120017 4.2550917,4.7696453 4.5435983,4.4782003 5.0649259,3.951552 5.0683549,3.948484 5.1009838,3.9784969 5.1348175,4.0096806 6.0487705,4.9062224 6.1146794,4.9729493 L 6.1516162,5.0103281 5.6737289,5.494647 C 5.4108895,5.7610394 5.171847,6.0022085 5.1425215,6.0305881 L 5.089199,6.0822544 4.5537674,5.5550187 Z"
     id="path4169"
     inkscape:connector-curvature="0" />
  <path
     style="opacity:0.90399996;fill:#ff0000;fill-opacity:1;stroke:none;stroke-width:0.27869761;stroke-opacity:1"
     d="M 2.1479534,3.1871364 C 1.1575574,2.2108039 0.34840478,1.402589 0.3498376,1.391095 0.35273796,1.368049 1.3061514,0.26384244 1.3226215,0.26443049 1.3355153,0.26489085 4.9941615,3.8657908 5.0001076,3.8839144 5.0034423,3.8944211 4.1102264,4.8126866 3.9756385,4.9373259 3.9507476,4.9603289 3.8100972,4.8257584 2.1479534,3.1871364 Z"
     id="path4171"
     inkscape:connector-curvature="0" />
  <path
     style="opacity:0.90399996;fill:#ff0000;fill-opacity:1;stroke:none;stroke-width:0.09853449;stroke-opacity:1"
     d="m 5.1125922,6.1129915 -0.018514,-0.020546 0.029543,-0.028624 C 5.170671,6.0183118 5.3541364,5.8331807 5.7449395,5.4368966 5.9450147,5.234017 6.1208032,5.0560464 6.1355811,5.0413933 l 0.026876,-0.026642 0.020344,0.019127 c 0.011189,0.010787 0.019339,0.021911 0.018112,0.025132 -0.00329,0.00879 -0.076003,0.083801 -0.1771023,0.1828059 -0.075183,0.073739 -0.5315082,0.5326954 -0.8010477,0.8057934 -0.046653,0.047305 -0.086343,0.085806 -0.088226,0.085739 -0.00193,-6.88e-5 -0.011687,-0.00932 -0.021936,-0.020668 z"
     id="path4173"
     inkscape:connector-curvature="0" />
  <path
     style="opacity:0.90399996;fill:#ff0000;fill-opacity:1;stroke:none;stroke-width:0.09853449;stroke-opacity:1"
     d="m 3.9771464,4.9932207 -0.02288,-0.025005 0.041482,-0.037992 c 0.076042,-0.069553 0.5662923,-0.5678251 0.76498,-0.777521 0.03792,-0.040049 0.080535,-0.082748 0.094694,-0.094857 0.01426,-0.012846 0.024435,-0.024355 0.022845,-0.027231 -0.00152,-0.00303 -4.607e-4,-0.00447 0.00253,-0.00436 0.00297,1.06e-4 0.035678,-0.030037 0.072598,-0.067005 l 0.067114,-0.067201 0.025575,0.023915 0.025575,0.023915 -0.1038288,0.1009112 C 4.806591,4.1975674 4.286859,4.72267 4.0714351,4.9464595 c -0.038375,0.039883 -0.070135,0.072436 -0.07061,0.072419 -4.58e-4,-1.64e-5 -0.011189,-0.010787 -0.023725,-0.025035 z"
     id="path4175"
     inkscape:connector-curvature="0" />
  <path
     style="opacity:0.90399996;fill:#ff0000;fill-opacity:1;stroke:none;stroke-width:0.0696744;stroke-opacity:1"
     d="M 4.4954013,5.6071141 C 4.1989115,5.3150975 3.9563839,5.0746159 3.9564527,5.0726893 c 5.28e-5,-0.00148 0.00996,-0.013 0.02189,-0.026227 l 0.021763,-0.02267 0.013657,0.012359 c 0.00749,0.0062 0.251615,0.246638 0.5424164,0.5331389 l 0.5287308,0.5208974 -0.022725,0.024268 c -0.012481,0.01291 -0.023846,0.024078 -0.025225,0.024029 -0.00138,-1.086e-4 -0.2450889,-0.239104 -0.5415793,-0.5311057 z"
     id="path4177"
     inkscape:connector-curvature="0" />
  <path
     style="opacity:0.90399996;fill:#ff0000;fill-opacity:1;stroke:none;stroke-width:0.0696744;stroke-opacity:1"
     d="M 6.0817098,4.9286634 C 6.0413413,4.8884911 5.8170895,4.6676862 5.5833677,4.4380552 5.3496464,4.2084091 5.1396752,4.002093 5.1167622,3.9795499 L 5.0751012,3.9385893 5.08719,3.9241815 c 0.00664,-0.00718 0.017609,-0.01896 0.024352,-0.024951 l 0.01228,-0.011433 0.5405239,0.5321959 c 0.2972877,0.292698 0.5412946,0.532891 0.5422382,0.5337705 0.00188,0.00155 -0.046031,0.047772 -0.04934,0.047357 -0.00117,-1.455e-4 -0.035143,-0.03316 -0.075511,-0.073332 z"
     id="path4179"
     inkscape:connector-curvature="0" />
</svg>
