<?xml version="1.0" encoding="UTF-8" standalone="no"?>
<svg
   xmlns:osb="http://www.openswatchbook.org/uri/2009/osb"
   xmlns:dc="http://purl.org/dc/elements/1.1/"
   xmlns:cc="http://creativecommons.org/ns#"
   xmlns:rdf="http://www.w3.org/1999/02/22-rdf-syntax-ns#"
   xmlns:svg="http://www.w3.org/2000/svg"
   xmlns="http://www.w3.org/2000/svg"
   xmlns:xlink="http://www.w3.org/1999/xlink"
   xmlns:sodipodi="http://sodipodi.sourceforge.net/DTD/sodipodi-0.dtd"
   xmlns:inkscape="http://www.inkscape.org/namespaces/inkscape"
   version="1.1"
   id="svg2"
   viewBox="0 0 19.999997 19.999997"
   height="19.999998"
   width="19.999998"
   inkscape:version="0.92.2 (5c3e80d, 2017-08-06)"
   sodipodi:docname="primary-na.svg">
  <sodipodi:namedview
     pagecolor="#ffffff"
     bordercolor="#666666"
     borderopacity="1"
     objecttolerance="10"
     gridtolerance="10"
     guidetolerance="10"
     inkscape:pageopacity="0"
     inkscape:pageshadow="2"
     inkscape:window-width="1920"
     inkscape:window-height="1178"
     id="namedview4168"
     showgrid="false"
     inkscape:zoom="40.594924"
     inkscape:cx="5.3767665"
     inkscape:cy="11.726935"
     inkscape:window-x="-8"
     inkscape:window-y="-8"
     inkscape:window-maximized="1"
     inkscape:current-layer="svg2"
     units="px" />
  <defs
     id="defs4">
    <linearGradient
       osb:paint="solid"
       id="linearGradient6132">
      <stop
         id="stop6134"
         offset="0"
         style="stop-color:#000000;stop-opacity:1;" />
    </linearGradient>
    <linearGradient
       osb:paint="solid"
       id="linearGradient4692">
      <stop
         id="stop4694"
         offset="0"
         style="stop-color:#000000;stop-opacity:1;" />
    </linearGradient>
    <linearGradient
       gradientTransform="translate(-763.67532,52.527932)"
       gradientUnits="userSpaceOnUse"
       y2="493.07648"
       x2="384.78571"
       y1="493.07648"
       x1="159.49998"
       id="linearGradient6136"
       xlink:href="#linearGradient4692" />
  </defs>
  <metadata
     id="metadata7">
    <rdf:RDF>
      <cc:Work
         rdf:about="">
        <dc:format>image/svg+xml</dc:format>
        <dc:type
           rdf:resource="http://purl.org/dc/dcmitype/StillImage" />
        <dc:title></dc:title>
      </cc:Work>
    </rdf:RDF>
  </metadata>
  <circle
     style="opacity:1;fill:#dadada;fill-opacity:1;fill-rule:nonzero;stroke:#494949;stroke-width:0.48911601;stroke-linecap:square;stroke-linejoin:miter;stroke-miterlimit:4;stroke-dasharray:none;stroke-dashoffset:0;stroke-opacity:1;paint-order:normal"
     id="path2229"
     cx="10.013567"
     cy="10.011065"
     r="9.7185402" />
  <path
     d="m 9.9762127,2.7077992 c -3.990984,0 -7.2382371,3.247254 -7.2382371,7.2382376 0,3.9909842 3.2472531,7.2382362 7.2382371,7.2382362 3.9909843,0 7.2382343,-3.247252 7.2382343,-7.2382362 0,-3.9909836 -3.24725,-7.2382376 -7.2382343,-7.2382376 z m 0,9.0477978 c 0.3347703,0 0.6442043,-0.09772 0.9129213,-0.256958 l 1.480924,1.356196 c -0.611634,0.477724 -1.558732,0.897408 -2.3938453,0.897408 -1.9959435,0 -3.8062055,-1.810262 -3.8062055,-3.8062062 0,-1.995943 1.810262,-3.806204 3.8062055,-3.806204 0.8351133,0 1.7189443,0.3582246 2.3323863,0.8341383 L 10.889134,8.3925306 C 10.620418,8.2341934 10.310983,8.136477 9.9762127,8.136477 c -0.9979719,0 -1.8095597,0.8115876 -1.8095597,1.8095598 0,0.9979722 0.8115878,1.8095602 1.8095597,1.8095602 z m 0,-6.2087357 c -2.494476,0 -4.3991729,1.9046977 -4.3991729,4.3991755 0,2.4944772 1.9046969,4.3991732 4.3991729,4.3991732 1.0839273,0 2.0041553,-0.399006 2.7840783,-1.036877 l 1.668003,1.418558 c -1.111068,0.964497 -2.868716,1.864414 -4.4520813,1.864414 -3.4924464,0 -6.6452677,-3.153723 -6.6452677,-6.6452682 0,-3.4924489 3.1528213,-6.6452683 6.6452677,-6.6452683 1.5833663,0 3.1539253,0.7128323 4.2658993,1.6773267 L 12.760286,6.5213784 C 11.980368,5.8835083 11.06014,5.5468613 9.9762127,5.5468613 Z"
     id="path2"
     inkscape:connector-curvature="0"
     sodipodi:nodetypes="ssssssccsssccssssssccsssccs"
     style="fill:#494949;stroke-width:0.46998996;fill-opacity:1" />
</svg>
