<?xml version="1.0" encoding="UTF-8" standalone="no"?>
<svg
   xmlns:osb="http://www.openswatchbook.org/uri/2009/osb"
   xmlns:dc="http://purl.org/dc/elements/1.1/"
   xmlns:cc="http://creativecommons.org/ns#"
   xmlns:rdf="http://www.w3.org/1999/02/22-rdf-syntax-ns#"
   xmlns:svg="http://www.w3.org/2000/svg"
   xmlns="http://www.w3.org/2000/svg"
   xmlns:xlink="http://www.w3.org/1999/xlink"
   xmlns:sodipodi="http://sodipodi.sourceforge.net/DTD/sodipodi-0.dtd"
   xmlns:inkscape="http://www.inkscape.org/namespaces/inkscape"
   version="1.1"
   id="svg2"
   viewBox="0 0 14.999999 14.999999"
   height="15"
   width="15"
   inkscape:version="0.91 r13725"
   sodipodi:docname="recording.svg">
  <sodipodi:namedview
     pagecolor="#ffffff"
     bordercolor="#666666"
     borderopacity="1"
     objecttolerance="10"
     gridtolerance="10"
     guidetolerance="10"
     inkscape:pageopacity="0"
     inkscape:pageshadow="2"
     inkscape:window-width="1920"
     inkscape:window-height="1138"
     id="namedview4168"
     showgrid="false"
     inkscape:zoom="22.627417"
     inkscape:cx="5.1391992"
     inkscape:cy="0.48426907"
     inkscape:window-x="-8"
     inkscape:window-y="-8"
     inkscape:window-maximized="1"
     inkscape:current-layer="svg2"
     units="px" />
  <defs
     id="defs4">
    <linearGradient
       id="linearGradient5641"
       osb:paint="solid">
      <stop
         style="stop-color:#000000;stop-opacity:1;"
         offset="0"
         id="stop5643" />
    </linearGradient>
    <linearGradient
       id="linearGradient5633"
       osb:paint="solid">
      <stop
         style="stop-color:#000000;stop-opacity:1;"
         offset="0"
         id="stop5635" />
    </linearGradient>
    <linearGradient
       osb:paint="solid"
       id="linearGradient6132">
      <stop
         id="stop6134"
         offset="0"
         style="stop-color:#000000;stop-opacity:1;" />
    </linearGradient>
    <linearGradient
       osb:paint="solid"
       id="linearGradient4692">
      <stop
         id="stop4694"
         offset="0"
         style="stop-color:#000000;stop-opacity:1;" />
    </linearGradient>
    <linearGradient
       gradientTransform="translate(-763.67532,52.527932)"
       gradientUnits="userSpaceOnUse"
       y2="493.07648"
       x2="384.78571"
       y1="493.07648"
       x1="159.49998"
       id="linearGradient6136"
       xlink:href="#linearGradient4692" />
  </defs>
  <metadata
     id="metadata7">
    <rdf:RDF>
      <cc:Work
         rdf:about="">
        <dc:format>image/svg+xml</dc:format>
        <dc:type
           rdf:resource="http://purl.org/dc/dcmitype/StillImage" />
        <dc:title />
      </cc:Work>
    </rdf:RDF>
  </metadata>
  <path
     style="fill:none;fill-rule:evenodd;stroke:#000000;stroke-width:1.40705693px;stroke-linecap:butt;stroke-linejoin:miter;stroke-opacity:1"
     d="M 3.8991094,9.389669 11.982993,0.74613212"
     id="path4467"
     inkscape:connector-curvature="0"
     sodipodi:nodetypes="cc" />
  <path
     style="fill:none;fill-rule:evenodd;stroke:#ffffff;stroke-width:1.00077021px;stroke-linecap:butt;stroke-linejoin:miter;stroke-opacity:1"
     d="m 5.1340279,8.2618763 -2.2545007,2.1642307 0.076997,-0.288944 c 0,0 0.9382283,-0.6279772 1.4263764,-1.2389171 C 4.8710473,8.2873074 4.7036002,8.4957545 4.7036002,8.4957545 Z"
     id="path4485"
     inkscape:connector-curvature="0" />
  <path
     style="fill:none;fill-rule:evenodd;stroke:#000000;stroke-width:1.49726379px;stroke-linecap:butt;stroke-linejoin:miter;stroke-opacity:1"
     d="M 3.9008954,9.4349397 12.189096,1.0149047"
     id="path4469"
     inkscape:connector-curvature="0" />
  <ellipse
     style="opacity:1;fill:#000000;fill-opacity:1;stroke:none;stroke-opacity:0.98222219"
     id="path4471"
     cx="11.872928"
     cy="1.1258115"
     rx="0.93658322"
     ry="0.91004473" />
  <path
     style="opacity:1;fill:#000000;fill-opacity:1;stroke:none;stroke-opacity:0.98222219"
     id="path4475"
     d="m 2.3733915,13.225019 c -0.1710327,-0.0041 -0.3421052,-0.0032 -0.5131681,-0.0031 -0.1013349,0.0018 -0.2039507,-0.0068 -0.3028966,0.0205 -0.054909,0.01513 -0.1013517,0.03667 -0.1539275,0.05863 -0.027477,0.01414 -0.1091286,0.05799 -0.082431,0.04242 0.6290954,-0.366747 0.3314266,-0.199576 0.2380532,-0.123245 -0.055089,0.04504 -0.095618,0.09675 -0.1344429,0.155493 -0.054241,0.09313 -0.057215,0.166109 -0.039572,0.268376 0.016968,0.07403 0.049385,0.14187 0.09156,0.204553 0.020847,0.02289 0.029586,0.03571 0.057962,0.05192 0.09041,0.05161 0.2296949,0.07152 0.3301255,0.09115 0.2171634,0.04093 0.4371225,0.04828 0.6572974,0.04328 0.1960863,-0.01733 0.376719,-0.100351 0.560509,-0.163878 0.1287359,-0.04449 0.365995,-0.119445 0.4920657,-0.15976 0.5600194,-0.181256 1.1434664,-0.269716 1.7258279,-0.342562 0.3472971,-0.04259 0.6967495,-0.06284 1.0464237,-0.06983 0.1147891,0.01055 0.2451208,-0.01323 0.3521962,0.04162 0.048141,0.02464 0.067964,0.05016 0.1048202,0.08727 0.075197,0.08404 0.091432,0.202605 0.1588066,0.291729 0.015396,0.02036 0.034394,0.03774 0.051591,0.05661 0.029746,0.02029 0.057019,0.0448 0.089241,0.06088 0.1118329,0.0558 0.2531213,0.0934 0.3718934,0.123526 0.2205231,0.05592 0.4431779,0.09185 0.6680133,0.124553 0.3787324,0.0524 0.7601921,0.07262 1.1420519,0.08226 0.053045,-0.002 0.1061512,-0.0025 0.1591341,-0.0058 0.099048,-0.006 0.2219028,-0.02111 0.3196723,-0.03059 0.2635633,-0.02557 0.5265153,-0.05285 0.7896093,-0.08314 0.599346,-0.0966 1.19077,-0.235177 1.789182,-0.337259 0.176633,-0.03039 0.355564,-0.03374 0.532633,-0.0052 0.150665,0.02423 0.29875,0.07327 0.44581,0.112761 0.23264,0.05901 0.471719,0.08268 0.709524,0.109455 0,0 -0.344108,0.244191 -0.344108,0.244191 l 0,0 c -0.24342,-0.02714 -0.488143,-0.05022 -0.727481,-0.104559 -0.145833,-0.03758 -0.292685,-0.08499 -0.442,-0.107147 -0.172369,-0.02559 -0.346121,-0.01878 -0.51783,0.0089 -0.595324,0.09491 -1.183319,0.227875 -1.777915,0.326523 -0.2694339,0.03387 -0.5388773,0.06683 -0.8087937,0.09665 -0.1145598,0.01266 -0.2091286,0.02448 -0.3235518,0.02896 -0.052527,0.0021 -0.1051282,0.0011 -0.1576928,0.0017 -0.3810234,-0.01507 -0.7629184,-0.02866 -1.1400154,-0.09001 -0.2251999,-0.03566 -0.4487417,-0.07422 -0.6702354,-0.129196 -0.1186698,-0.02945 -0.281571,-0.07086 -0.3947743,-0.125538 -0.036012,-0.01739 -0.066358,-0.04466 -0.099538,-0.06699 -0.019215,-0.02106 -0.040332,-0.04054 -0.057644,-0.06318 -0.065676,-0.08593 -0.083046,-0.199418 -0.1544012,-0.281359 -0.034667,-0.03346 -0.046168,-0.05039 -0.092143,-0.0702 -0.1041883,-0.04491 -0.2268525,-0.02381 -0.3361317,-0.03474 -0.3422922,0.0049 -0.684519,0.01963 -1.0247608,0.05957 -0.5813971,0.07118 -1.1625809,0.160869 -1.7198007,0.348029 -0.2277189,0.07456 -0.2801462,0.08997 -0.5011532,0.168969 -0.1893422,0.06768 -0.3769215,0.150974 -0.5808326,0.160903 -0.2220704,0.0041 -0.4438091,-0.0091 -0.662343,-0.05144 -0.1455622,-0.02861 -0.3173184,-0.04503 -0.4185613,-0.165947 -0.045483,-0.0681 -0.07886,-0.142124 -0.0984729,-0.221903 -0.003433,-0.01663 -0.016637,-0.07775 -0.0180005,-0.09571 -0.005305,-0.06993 0.0154312,-0.141499 0.0444982,-0.204044 0.02987,-0.05122 0.035579,-0.06584 0.075569,-0.112846 0.032288,-0.03796 0.083172,-0.08898 0.1257318,-0.114915 0.3919788,-0.238917 0.3199585,-0.202031 0.5498042,-0.310138 0.064531,-0.02437 0.095179,-0.03902 0.1616747,-0.05285 0.1003245,-0.02087 0.203113,-0.01041 0.3046179,-0.0121 0.1738387,2.87e-4 0.3476842,9.41e-4 0.5214941,-0.0031 0,0 -0.3727754,0.270838 -0.3727754,0.270838 z"
     inkscape:connector-curvature="0" />
  <path
     style="fill:none;fill-rule:evenodd;stroke:#000000;stroke-width:0.75767833px;stroke-linecap:butt;stroke-linejoin:miter;stroke-opacity:1"
     d="m 2.6785918,10.350206 0.1390481,0.04717"
     id="path4487"
     inkscape:connector-curvature="0" />
</svg>
