<?xml version="1.0" encoding="UTF-8" standalone="no"?>
<svg
   xmlns:osb="http://www.openswatchbook.org/uri/2009/osb"
   xmlns:dc="http://purl.org/dc/elements/1.1/"
   xmlns:cc="http://creativecommons.org/ns#"
   xmlns:rdf="http://www.w3.org/1999/02/22-rdf-syntax-ns#"
   xmlns:svg="http://www.w3.org/2000/svg"
   xmlns="http://www.w3.org/2000/svg"
   xmlns:xlink="http://www.w3.org/1999/xlink"
   xmlns:sodipodi="http://sodipodi.sourceforge.net/DTD/sodipodi-0.dtd"
   xmlns:inkscape="http://www.inkscape.org/namespaces/inkscape"
   version="1.1"
   id="svg2"
   viewBox="0 0 19.999997 19.999997"
   height="19.999998"
   width="19.999998"
   inkscape:version="0.92.2 (5c3e80d, 2017-08-06)"
   sodipodi:docname="secondary-na.svg">
  <sodipodi:namedview
     pagecolor="#ffffff"
     bordercolor="#666666"
     borderopacity="1"
     objecttolerance="10"
     gridtolerance="10"
     guidetolerance="10"
     inkscape:pageopacity="0"
     inkscape:pageshadow="2"
     inkscape:window-width="1920"
     inkscape:window-height="1178"
     id="namedview4168"
     showgrid="false"
     inkscape:zoom="40.594924"
     inkscape:cx="6.4072608"
     inkscape:cy="12.163239"
     inkscape:window-x="-8"
     inkscape:window-y="-8"
     inkscape:window-maximized="1"
     inkscape:current-layer="svg2"
     units="px" />
  <defs
     id="defs4">
    <linearGradient
       osb:paint="solid"
       id="linearGradient6132">
      <stop
         id="stop6134"
         offset="0"
         style="stop-color:#000000;stop-opacity:1;" />
    </linearGradient>
    <linearGradient
       osb:paint="solid"
       id="linearGradient4692">
      <stop
         id="stop4694"
         offset="0"
         style="stop-color:#000000;stop-opacity:1;" />
    </linearGradient>
    <linearGradient
       gradientTransform="translate(-763.67532,52.527932)"
       gradientUnits="userSpaceOnUse"
       y2="493.07648"
       x2="384.78571"
       y1="493.07648"
       x1="159.49998"
       id="linearGradient6136"
       xlink:href="#linearGradient4692" />
  </defs>
  <metadata
     id="metadata7">
    <rdf:RDF>
      <cc:Work
         rdf:about="">
        <dc:format>image/svg+xml</dc:format>
        <dc:type
           rdf:resource="http://purl.org/dc/dcmitype/StillImage" />
        <dc:title></dc:title>
      </cc:Work>
    </rdf:RDF>
  </metadata>
  <circle
     style="opacity:1;fill:#dadada;fill-opacity:1;fill-rule:nonzero;stroke:#494949;stroke-width:0.48911601;stroke-linecap:square;stroke-linejoin:miter;stroke-miterlimit:4;stroke-dasharray:none;stroke-dashoffset:0;stroke-opacity:1;paint-order:normal"
     id="path2229"
     cx="10.013567"
     cy="10.011065"
     r="9.7185402" />
  <g
     id="g7"
     transform="matrix(0.4343583,0,0,0.58022442,3.0553815,0.75210724)"
     style="fill:#494949;fill-opacity:1">
    <g
       id="Laptop"
       style="fill:#494949;fill-opacity:1">
      <g
         id="g4"
         style="fill:#494949;fill-opacity:1">
        <path
           d="M 28.118644,4.8135593 H 3.8813559 c -1.5418644,0 -2.7966101,1.2547458 -2.7966101,2.7966102 V 19.728814 c 0,1.541864 1.2547457,2.79661 2.7966101,2.79661 H 28.118644 c 1.541864,0 2.79661,-1.254746 2.79661,-2.79661 V 7.6101695 c 0,-1.5418644 -1.254746,-2.7966102 -2.79661,-2.7966102 z m 0.932203,14.9152547 c 0,0.513644 -0.417627,0.932203 -0.932203,0.932203 H 3.8813559 c -0.5145762,0 -0.9322034,-0.418559 -0.9322034,-0.932203 V 7.6101695 c 0,-0.5136441 0.4176272,-0.9322034 0.9322034,-0.9322034 H 28.118644 c 0.514576,0 0.932203,0.4185593 0.932203,0.9322034 z m 0.466102,4.661017 h -9.788135 c 0,0.514576 -0.416695,0.932203 -0.932204,0.932203 h -5.59322 c -0.515509,0 -0.932204,-0.417627 -0.932204,-0.932203 H 2.4830508 c -0.7718644,0 -1.398305,0.62644 -1.398305,1.398305 0,0.771864 0.6264406,1.398305 1.398305,1.398305 H 29.516949 c 0.771865,0 1.398305,-0.626441 1.398305,-1.398305 0,-0.771865 -0.62644,-1.398305 -1.398305,-1.398305 z"
           id="path2-3"
           inkscape:connector-curvature="0"
           style="fill:#494949;stroke-width:0.93220341;fill-opacity:1" />
      </g>
    </g>
  </g>
</svg>
